<?xml version="1.0" encoding="UTF-8" standalone="no"?>
<svg width="90px" height="212px" viewBox="0 0 90 212" version="1.1" xmlns="http://www.w3.org/2000/svg" xmlns:xlink="http://www.w3.org/1999/xlink" xmlns:sketch="http://www.bohemiancoding.com/sketch/ns">
    <!-- Generator: Sketch 3.3.3 (12072) - http://www.bohemiancoding.com/sketch -->
    <title>boy</title>
    <desc>Created with Sketch.</desc>
    <defs></defs>
    <g id="Page-1" stroke="none" stroke-width="1" fill="none" fill-rule="evenodd" sketch:type="MSPage">
        <g id="boy" sketch:type="MSLayerGroup" transform="translate(41.500000, 105.500000) scale(-1, 1) translate(-41.500000, -105.500000) translate(-10.000000, -1.000000)">
            <g id="Building" sketch:type="MSShapeGroup">
                <g id="boy">
                    <g id="legs" transform="translate(37.000000, 131.000000)">
                        <path d="M11.4243945,10.6699652 L11.4243945,0.551104799 L46.4398074,0.551104799 L46.4398074,10.6699652 L46.4398074,78.9909953 C46.4398074,80.6528227 45.0964338,82 43.4398441,82 L38.0217013,82 C36.3648673,82 35.021738,80.6553929 35.021738,78.9909953 L35.021738,18.8883497 C32.7800351,19.7418083 30.6073346,20.3424251 28.9321009,20.3424251 C27.2391709,20.3424251 25.0715773,19.7495373 22.8424639,18.9048454 L22.8424639,78.9909953 C22.8424639,80.6528227 21.4990903,82 19.8425006,82 L14.4243578,82 C12.7675238,82 11.4243945,80.6553929 11.4243945,78.9909953 L11.4243945,10.6699652 L11.4243945,10.6699652 Z" id="Shape" fill="#5F98C7"></path>
                        <path d="M34.6016532,0.551104799 L11.4243945,0.551104799 L11.4243945,10.6699652 L11.4243945,78.9909953 C11.4243945,80.6553929 12.7675238,82 14.4243578,82 L19.8425006,82 C21.4990903,82 22.8424639,80.6528227 22.8424639,78.9909953 L22.8424639,18.9048454 C24.078867,19.3733634 25.2963437,19.764414 26.4243945,20.0197944 L26.4243945,0.551104799 L34.6016532,0.551104799 L34.6016532,0.551104799 Z" id="legs-copy" fill="#6BACE2"></path>
                        <path d="M15.3518982,74 L22.8500004,74 L22.8500004,82 L8,82 L8,81.9934744 C4.06150611,81.8460451 0.924394494,79.2190677 0.924394494,76 C0.924394494,72.6862915 4.24868031,70 8.34939468,70 C11.5822864,70 14.3326031,71.6696153 15.3518982,74 L15.3518982,74 Z" id="Rectangle-41" fill="#E6AE71"></path>
                        <path d="M38.9417052,74 L46.4398074,74 L46.4398074,82 L31.589807,82 L31.589807,81.9934744 C27.6513131,81.8460451 24.5142015,79.2190677 24.5142015,76 C24.5142015,72.6862915 27.8384873,70 31.9392017,70 C35.1720934,70 37.9224101,71.6696153 38.9417052,74 L38.9417052,74 Z" id="Rectangle-41-Copy" fill="#D7A269"></path>
                    </g>
                    <g id="left-arm">
                        <path d="M12.257685,16.7960067 C14.8696254,14.8852594 18.358553,15.7153838 20.0594168,18.6657422 L57.7313684,84.0123996 C59.4282055,86.9557733 58.681053,90.8947038 56.0744273,92.8015631 C53.462487,94.7123103 49.9735594,93.882186 48.2726956,90.9318275 L10.6007439,25.5851701 C8.90390685,22.6417964 9.65105942,18.7028659 12.257685,16.7960067 L12.257685,16.7960067 Z" id="Shape" stroke="#494949" fill="#965CD2"></path>
                        <path d="M16.8283575,15.9979125 C15.3282606,15.532526 13.6656543,15.766167 12.257818,16.7960067 C9.65105735,18.7028659 8.90386606,22.6417964 10.6007911,25.5851701 L48.2746947,90.9318275 C49.65148,93.3199079 52.1997963,94.3188927 54.5062912,93.5996572 C53.2231335,93.2015733 52.0588808,92.2920247 51.2746947,90.9318275 L13.6007911,25.5851701 C11.9038661,22.6417964 12.6510573,18.7028659 15.257818,16.7960067 C15.7556263,16.4318573 16.2852889,16.1672579 16.8283575,15.9979125 L16.8283575,15.9979125 Z" id="left-arm-copy-2" fill="#794BAB"></path>
                        <ellipse id="Oval-42-Copy-4" fill="#DEB649" transform="translate(10.000000, 12.500000) rotate(-22.000000) translate(-10.000000, -12.500000) " cx="10" cy="12.5" rx="6" ry="10"></ellipse>
                        <path d="M11,22.3617359 C13.8377133,21.5682724 16,17.4549938 16,12.5 C16,7.54500619 13.8377133,3.43172755 11,2.63826407 C8.16228665,3.43172755 5.99999999,7.54500619 5.99999999,12.5 C5.99999999,17.4549938 8.16228665,21.5682724 11,22.3617359 L11,22.3617359 Z" id="Oval-42-Copy-3" fill="#FCCE54" transform="translate(11.000000, 12.500000) rotate(-22.000000) translate(-11.000000, -12.500000) "></path>
                    </g>
                    <g id="torso-+-head" transform="translate(29.000000, 8.000000)">
                        <g id="hair" transform="translate(37.323938, 41.471197) rotate(-20.000000) translate(-37.323938, -41.471197) translate(10.823938, 7.971197)">
                            <path d="M35.7732398,62.8701306 C33.7382109,64.8563446 32.2388408,66.0820188 32.2388408,66.0820188 L30.987657,63.4938901 C28.6426291,65.0933832 26.9568722,66.0380169 26.9568722,66.0380169 L25.0361203,59.2504945 C18.6412098,61.6420701 12.1142163,62.4753283 12.1142163,62.4753283 L12.4265261,59.6102998 C9.59415469,59.7237501 7.66758933,59.6320605 7.66758933,59.6320605 L8.50285965,56.7609898 C5.68990128,56.3806368 3.80536612,55.955082 3.80536612,55.955082 L5.08153814,53.3639682 C2.38195371,52.5020359 0.603542098,51.7572063 0.603542098,51.7572063 L5.55793934,44.9931113 C4.44517332,42.6000305 3.7221838,40.010351 3.43672469,37.3313376 C3.03009427,35.3943412 2.8485583,33.3732964 2.92095245,31.300199 C3.18114213,23.8493414 6.66654071,17.298036 11.9380702,13.0347056 L11.9380702,13.0347056 L10.2471799,6.35249227 C10.2471799,6.35249227 12.1752577,6.32775777 15.0009077,6.53971519 L15.0009077,6.53971519 L14.7901456,3.66984954 C14.7901456,3.66984954 16.6975493,3.98100316 19.4484961,4.68208736 L19.4484961,4.68208736 L19.7496943,1.71672003 C19.7496943,1.71672003 21.5724344,2.3537854 24.1579805,3.52090459 L24.9406519,0.754957268 C24.9406519,0.754957268 31.9778966,4.69842692 37.2973805,10.1137115 C37.8569458,10.3629509 38.4018797,10.6324955 38.9317108,10.9211804 C39.5758855,11.2430849 40.2102839,11.5982945 40.8328546,11.9873199 C43.7049815,13.7820239 46.0406014,16.1184736 47.7964629,18.7936461 L47.7964629,18.7936461 C49.0211357,20.5442904 50.0420938,22.4868282 50.8102478,24.5973141 C52.6486645,29.6483224 52.7594822,34.8931814 51.4472045,39.6478801 C50.9908589,41.9134591 50.2223306,44.0778899 49.182004,46.0812967 C47.8854213,54.4639458 42.5012067,63.5192486 42.5012067,63.5192486 L40.4375356,61.5124583 C38.7791764,63.8204901 37.5162985,65.2868877 37.5162985,65.2868877 L35.7732398,62.8701306 L35.7732398,62.8701306 Z" id="Path-143" fill="#BA883D"></path>
                            <path d="M26.391505,64.0401313 L26.9568722,66.0380169 C26.9568722,66.0380169 28.6426291,65.0933832 30.987657,63.4938901 L32.2388408,66.0820188 C32.2388408,66.0820188 33.7382109,64.8563446 35.7732398,62.8701306 L35.7732398,62.8701306 L37.5162985,65.2868877 C37.5162985,65.2868877 38.7791764,63.8204901 40.4375356,61.5124583 L42.5012067,63.5192486 C42.5012067,63.5192486 47.8854213,54.4639458 49.182004,46.0812967 C50.2223306,44.0778899 50.9908589,41.9134591 51.4472045,39.6478801 C52.7594822,34.8931814 52.6486645,29.6483224 50.8102478,24.5973141 C50.0420938,22.4868282 49.0211357,20.5442904 47.7964629,18.7936461 L47.7964629,18.7936461 C46.0406014,16.1184736 43.7049815,13.7820239 40.8328546,11.9873199 C40.2102839,11.5982945 39.5758855,11.2430849 38.9317108,10.9211804 C38.4018797,10.6324955 37.8569458,10.3629509 37.2973805,10.1137115 C31.9778966,4.69842692 24.9406519,0.754957268 24.9406519,0.754957268 L24.1579805,3.52090459 C21.5724344,2.3537854 19.7496943,1.71672003 19.7496943,1.71672003 L19.4484961,4.68208736 C16.6975493,3.98100316 14.7901456,3.66984954 14.7901456,3.66984954 L15.0009077,6.53971519 C12.1752577,6.32775777 10.2471799,6.35249227 10.2471799,6.35249227 L11.9380702,13.0347056 C7.01533032,17.0159537 3.6501827,22.9924263 3.01453955,29.8334622 C6.77259828,21.4062319 15.1427675,15.5416678 24.8652246,15.5416678 C38.1002527,15.5416678 48.8293629,26.4092616 48.8293629,39.8151181 C48.8293629,52.7016775 38.9153714,63.2428129 26.391505,64.0401313 L26.391505,64.0401313 Z M15.080462,61.9795892 C13.2679193,62.3280426 12.1142163,62.4753283 12.1142163,62.4753283 L12.3288603,60.506254 C13.2099507,61.0551282 14.1287694,61.5478789 15.080462,61.9795892 L15.080462,61.9795892 Z M11.0510233,59.6521354 C8.98858881,59.6949298 7.66758933,59.6320605 7.66758933,59.6320605 L8.32332384,57.3781074 C9.17516648,58.2015114 10.0868241,58.9619765 11.0510233,59.6521354 L11.0510233,59.6521354 Z M7.58270882,56.6304779 C5.28655356,56.2895551 3.80536612,55.955082 3.80536612,55.955082 L5.03790743,53.4525551 C5.79787756,54.5839748 6.64977161,55.6469566 7.58270882,56.6304779 L7.58270882,56.6304779 Z M4.9509032,53.3221204 C2.32472822,52.4780688 0.603542098,51.7572063 0.603542098,51.7572063 L2.65729578,48.9532759 C3.27619579,50.4948829 4.04700591,51.9575197 4.9509032,53.3221204 L4.9509032,53.3221204 Z" id="Path-143-Copy" fill="#CF9845"></path>
                        </g>
                        <g id="head" transform="translate(13.088327, 20.614544)">
                            <g id="nack" transform="translate(16.542179, 42.627459)">
                                <rect id="Rectangle-25" fill="#FCCE54" x="0.747949345" y="0.935140821" width="12.7825932" height="9.89566016"></rect>
                                <path d="M13.5305425,9.23251407 L13.5305425,0.173936193 L0.747949345,0.173936193 L0.747949345,6.11055509 C4.63486266,8.09117883 8.76102063,9.25263878 12.651777,9.25263878 C12.9485808,9.25263878 13.2414942,9.24587989 13.5305425,9.23251407 L13.5305425,9.23251407 Z" id="Rectangle-25-Copy" fill="#E3BB4B"></path>
                            </g>
                            <path d="M23.9641383,48.5469006 C37.1991664,48.5469006 47.9282766,37.6793067 47.9282766,24.2734503 C47.9282766,10.8675939 37.1991664,0 23.9641383,0 C10.7291102,0 0,10.8675939 0,24.2734503 C0,37.6793067 10.7291102,48.5469006 23.9641383,48.5469006 L23.9641383,48.5469006 Z" id="face" fill="#FCCE54"></path>
                        </g>
                        <g id="mouth" transform="translate(27.370787, 46.669437)">
                            <ellipse id="Oval-12-Copy-2" fill="#DF6E6E" cx="7.53702802" cy="8.32978878" rx="6.80693423" ry="8.31153161"></ellipse>
                            <path d="M14.1564931,10.2751479 C14.2790524,9.65111667 14.3439622,8.99970851 14.3439622,8.32978878 C14.3439622,3.73945662 11.296394,0.0182571634 7.53702802,0.0182571634 C3.77766205,0.0182571634 0.730093791,3.73945662 0.730093791,8.32978878 C0.730093791,10.8852246 1.67457902,13.1713037 3.16056087,14.6959613 C3.87778532,11.0440912 6.56930733,8.32978878 9.78002598,8.32978878 C11.4465546,8.32978878 12.9732041,9.06106139 14.1564931,10.2751479 L14.1564931,10.2751479 Z" id="Oval-12" fill="#914646"></path>
                        </g>
                        <g id="eyes" transform="translate(21.853420, 30.437263)">
                            <ellipse id="Oval-4" fill="#FFFFFF" cx="6.014346" cy="6.09197488" rx="6.014346" ry="6.09197488"></ellipse>
                            <ellipse id="Oval-4-Copy" fill="#FFFFFF" cx="22.2390933" cy="9.58659612" rx="6.014346" ry="6.09197488"></ellipse>
                            <ellipse id="Oval-5" fill="#CF9845" cx="6.014346" cy="2.92792591" rx="2.3777647" ry="2.17233213"></ellipse>
                            <ellipse id="Oval-5-Copy" fill="#CF9845" cx="22.2390933" cy="6.42254716" rx="2.3777647" ry="2.17233213"></ellipse>
                        </g>
                        <g id="torso" transform="translate(19.000000, 74.000000)">
                            <path d="M35.4398074,34.297331 L35.4398074,13.0726451 C35.4398074,5.89408958 29.6184365,0.0728039764 22.4374116,0.0728039764 L13.8540098,0.0728039764 C6.67991741,0.0728039764 0.851614054,5.89303108 0.851614054,13.0726451 L0.851614054,34.297331 L0.851614054,49.5511048 L35.4398074,49.5511048 L35.4398074,34.297331 L35.4398074,34.297331 Z" id="chest" stroke="#494949" fill="#794BAB"></path>
                            <path d="M18.2847952,0.0728039764 L13.8540098,0.0728039764 C6.67991741,0.0728039764 0.851614054,5.89303108 0.851614054,13.0726451 L0.851614054,34.297331 L0.851614054,49.5511048 L31.287191,49.5511048 L27.1345746,49.5511048 C19.9604822,49.5511048 14.1321788,43.7308777 14.1321788,36.5512637 L14.1321788,15.3265777 L14.1321788,0.0728039764 L18.2847952,0.0728039764 L18.2847952,0.0728039764 Z" id="chest-copy-2" stroke="#494949" fill="#975CD2"></path>
                            <g id="buttons" transform="translate(11.000000, 4.000000)" fill="#494949">
                                <circle id="Oval-71" cx="2.97752809" cy="2.5" r="2.5"></circle>
                                <circle id="Oval-71-Copy" cx="2.97752809" cy="12.5" r="2.5"></circle>
                                <circle id="Oval-71-Copy-2" cx="2.97752809" cy="22.5" r="2.5"></circle>
                            </g>
                        </g>
                    </g>
                    <g id="right-arm" transform="translate(48.000000, 0.000000)">
                        <path d="M32.6545167,82.3424409 L34.3998732,88.5804024 C35.1995279,91.4383943 33.4225672,94.3775728 30.4444831,95.1417611 L30.4444831,95.1417611 C27.4603268,95.9075076 24.3949121,94.218449 23.5925459,91.3507657 C23.5925459,91.3507657 22.4137756,87.1378021 22.308003,86.7597674 C16.5984952,66.3537996 4.21013671,22.0774002 4.21013671,22.0774002 C3.41124227,19.2221253 5.18881918,16.2851493 8.16690332,15.520961 L8.16690332,15.520961 C11.1510596,14.7552146 14.2169937,16.4461295 15.0175774,19.307442 L32.6545167,82.3424409 L32.6545167,82.3424409 Z" id="Shape" stroke="#494949" fill="#965CD2"></path>
                        <path d="M30.4925486,95.129211 C30.4765618,95.1334574 30.4605399,95.1376409 30.4444831,95.1417611 C27.4603268,95.9075076 24.3949121,94.218449 23.5925459,91.3507657 C23.5925459,91.3507657 22.4137756,87.1378021 22.308003,86.7597674 C16.5984952,66.3537996 4.21013671,22.0774002 4.21013671,22.0774002 C3.41124227,19.2221253 5.18881918,16.2851493 8.16690332,15.520961 C9.17130613,15.2632272 10.1849731,15.2837965 11.11841,15.5336245 C8.16955625,16.3170998 6.41558806,19.2376573 7.21013671,22.0774002 C7.21013671,22.0774002 19.5984952,66.3537996 25.308003,86.7597674 C25.4137756,87.1378021 26.5925459,91.3507657 26.5925459,91.3507657 C27.124805,93.2530772 28.652916,94.6367363 30.4925486,95.129211 L30.4925486,95.129211 Z" id="right-arm-copy-2" fill="#794BAB"></path>
                        <ellipse id="Oval-42" fill="#DEB649" transform="translate(8.000000, 11.000000) rotate(8.000000) translate(-8.000000, -11.000000) " cx="8" cy="11" rx="6" ry="10"></ellipse>
                        <path d="M9,20.8617359 C11.8377133,20.0682724 14,15.9549938 14,11 C14,6.04500619 11.8377133,1.93172755 9,1.13826407 C6.16228666,1.93172755 4,6.04500619 4,11 C4,15.9549938 6.16228666,20.0682724 9,20.8617359 L9,20.8617359 Z" id="Oval-42-Copy-2" fill="#FCCE54" transform="translate(9.000000, 11.000000) rotate(8.000000) translate(-9.000000, -11.000000) "></path>
                    </g>
                </g>
            </g>
        </g>
    </g>
</svg>