<?xml version="1.0" encoding="UTF-8" standalone="no"?>
<svg width="115px" height="152px" viewBox="0 0 115 152" version="1.1" xmlns="http://www.w3.org/2000/svg" xmlns:xlink="http://www.w3.org/1999/xlink" xmlns:sketch="http://www.bohemiancoding.com/sketch/ns">
    <!-- Generator: Sketch 3.3.3 (12072) - http://www.bohemiancoding.com/sketch -->
    <title>cat_perched</title>
    <desc>Created with Sketch.</desc>
    <defs>
        <path id="path-1" d="M10.391,1.581 C10.391,1.581 6.684,-0.614 3.547,0.77 C0.406,2.156 0.253,3.24 0.253,3.24 C0.253,3.24 1.74,4.854 5.846,3.595 C9.936,2.326 10.391,1.581 10.391,1.581"></path>
        <path id="path-3" d="M0.335,7.551 C0.335,7.551 0.576,3.248 3.477,1.412 C6.388,-0.414 7.37,0.067 7.37,0.067 C7.37,0.067 7.864,2.212 4.541,4.891 C1.213,7.59 0.335,7.551 0.335,7.551"></path>
    </defs>
    <g id="Page-1" stroke="none" stroke-width="1" fill="none" fill-rule="evenodd" sketch:type="MSPage">
        <g id="cats3" sketch:type="MSLayerGroup" transform="translate(-142.000000, -11.000000)">
            <g id="cat_perched" transform="translate(141.000000, 11.000000)">
                <path d="M104.564,16.721 C105.117,21.8 103.951,26.591 102.826,30.803 C100.31,39.182 98.28,45.973 97.578,49.445 C94.309,62.239 96.66,69.686 96.326,80.714 C95.702,69.941 92.764,62.207 96.08,49.11 C96.784,45.584 98.847,38.682 101.33,30.391 C102.444,26.25 103.549,21.602 103.029,16.899 C102.66,12.156 99.728,7.889 95.666,5.49 C87.25,0.811 77.301,1.947 70.656,2.428 C63.83,3.152 54.674,6.669 48.887,8.797 C34.644,14.035 23.348,20.637 7.047,38.217 C0.303,45.493 1.641,57.778 8.77,62.783 C15.34,68.701 23.342,67.358 25.508,64.803 C30.527,60.711 28.937,54.205 25.387,51.433 L25.162,51.247 C23.492,50.211 22.223,49.463 19.936,49.591 C18.734,49.441 13.283,51.1 13.09,55.297 C12.733,59.857 17.82,60.053 17.508,59.999 C17.488,59.986 18.454,60.172 19.752,59.829 C20.56,59.801 21.074,59.165 21.145,58.483 C20.317,59.5 18.258,59.597 17.812,57.992 C17.463,57.343 17.592,56.002 18.6,55.591 C18.953,55.442 19.292,55.381 19.621,55.369 C19.797,55.301 19.965,55.317 20.124,55.393 C20.376,55.428 20.619,55.484 20.848,55.58 C24.334,57.039 22.189,61.437 20.191,61.307 C18.451,61.762 17.349,61.502 17.354,61.529 C17.364,61.498 16.222,61.543 14.629,60.783 C12.872,60.186 11.34,57.688 11.541,55.221 C12.012,49.571 18.4,47.944 19.869,48.057 C21.618,47.982 25.404,49.98 26.092,50.55 C30.269,53.295 32.383,61.18 26.494,65.986 C23.924,69.016 14.674,70.33 7.781,63.971 C4.28,61.159 1.457,56.604 1.053,51.471 C0.563,46.334 2.606,41.096 5.852,37.24 C16.056,25.115 24.83,18.76 30.804,15.313 C40.84,9.518 61.16,1.555 70.486,0.895 C77.281,0.44 87.31,-0.857 96.46,4.165 C100.891,6.739 104.184,11.587 104.564,16.721" id="Fill-39" fill="#0A0B09" sketch:type="MSShapeGroup"></path>
                <path d="M80.763,149.659 C80.524,149.196 80.391,148.669 80.391,148.103 C80.391,146.233 81.854,144.706 83.652,144.706 C85.457,144.706 86.913,146.233 86.913,148.103 C86.913,148.669 86.773,149.196 86.545,149.659 L80.763,149.659" id="Fill-40" fill="#0A0B09" sketch:type="MSShapeGroup"></path>
                <path d="M81.887,149.204 L81.365,151.952 L80.763,149.241 L81.887,149.204" id="Fill-41" fill="#0A0B09" sketch:type="MSShapeGroup"></path>
                <path d="M84.297,149.204 L83.779,151.952 L83.164,149.241 L84.297,149.204" id="Fill-42" fill="#0A0B09" sketch:type="MSShapeGroup"></path>
                <path d="M86.582,149.204 L86.055,151.952 L85.457,149.241 L86.582,149.204" id="Fill-43" fill="#0A0B09" sketch:type="MSShapeGroup"></path>
                <path d="M87.575,149.659 C87.352,149.196 87.217,148.669 87.217,148.103 C87.217,146.233 88.67,144.706 90.472,144.706 C92.271,144.706 93.738,146.233 93.738,148.103 C93.738,148.669 93.6,149.196 93.365,149.659 L87.575,149.659" id="Fill-44" fill="#0A0B09" sketch:type="MSShapeGroup"></path>
                <path d="M88.646,148.915 L88.129,151.665 L87.516,148.962 L88.646,148.915" id="Fill-45" fill="#0A0B09" sketch:type="MSShapeGroup"></path>
                <path d="M91.051,148.915 L90.529,151.665 L89.926,148.962 L91.051,148.915" id="Fill-46" fill="#0A0B09" sketch:type="MSShapeGroup"></path>
                <path d="M93.468,148.915 L92.947,151.665 L92.344,148.962 L93.468,148.915" id="Fill-47" fill="#0A0B09" sketch:type="MSShapeGroup"></path>
                <path d="M92.527,49.557 C99.257,53.105 104.176,61.819 103.965,74.639 C103.959,75.049 103.945,75.459 103.934,75.867 C101.074,76.725 97.582,77.813 94.92,79.252 C93.891,74.121 91.772,71.428 89.38,70.193 C89.777,67.896 90.186,65.6 90.493,63.271 C91.101,58.691 91.83,54.123 92.527,49.557" id="Fill-48" fill="#0A0B09" sketch:type="MSShapeGroup"></path>
                <path d="M103.934,75.867 C103.684,82.399 102.418,88.854 100.678,95.526 L94.939,95.526 C95.406,92.143 95.662,88.86 95.578,85.629 C95.521,83.173 95.292,81.056 94.92,79.252 C97.582,77.813 101.074,76.725 103.934,75.867" id="Fill-49" fill="#FFFFFF" sketch:type="MSShapeGroup"></path>
                <path d="M90.493,63.271 C90.186,65.6 89.777,67.896 89.38,70.193 C88.638,69.816 87.877,69.572 87.109,69.439 C85.535,69.714 83.968,70.449 82.617,71.908 C80.552,65.99 78.479,59.887 75.979,54.086 C78.959,50.432 82.823,48.289 86.975,47.848 C88.906,48.053 90.781,48.627 92.527,49.557 C91.83,54.123 91.101,58.691 90.493,63.271 Z" id="Fill-50" fill="#FFFFFF" sketch:type="MSShapeGroup"></path>
                <path d="M100.678,95.526 C96.781,110.471 90.499,126.547 87.928,147.267 L87.166,147.171 C87.166,147.171 87.166,145.54 87.013,142.788 C88.209,123.1 93.148,108.52 94.939,95.526 L100.678,95.526" id="Fill-51" fill="#0A0B09" sketch:type="MSShapeGroup"></path>
                <path d="M87.166,147.171 L87.928,147.267 C87.838,147.978 87.748,148.698 87.672,149.423 L86.277,149.423 C83.903,127.947 77.469,111.43 73.426,96.147 C75.536,96.274 77.641,96.416 79.708,96.505 C81.927,112.607 86.834,139.348 87.013,142.788 C87.039,144.222 87.077,145.681 87.166,147.171" id="Fill-52" fill="#0A0B09" sketch:type="MSShapeGroup"></path>
                <path d="M82.617,71.908 C80.962,73.692 79.631,76.559 79.003,80.973 C77.25,79.079 75.012,77.377 73.611,76.124 C72.422,75.055 71.218,74.121 69.983,73.27 C70.079,64.935 72.401,58.435 75.979,54.086 C78.479,59.887 80.552,65.99 82.617,71.908" id="Fill-53" fill="#0A0B09" sketch:type="MSShapeGroup"></path>
                <path d="M69.983,73.27 C71.218,74.121 72.422,75.055 73.611,76.124 C75.012,77.377 77.25,79.079 79.003,80.973 C78.813,82.367 78.684,83.915 78.639,85.629 C78.594,87.574 79.023,91.534 79.708,96.505 C77.641,96.416 75.536,96.274 73.426,96.147 C71.494,88.827 70.111,81.797 69.977,74.639 C69.971,74.178 69.971,73.725 69.983,73.27" id="Fill-54" fill="#FFFFFF" sketch:type="MSShapeGroup"></path>
                <path d="M86.088,118.514 C86.854,116.881 88.014,116.129 89.878,115.141 C91.996,114.102 102.882,110.326 102.913,110.361 C102.912,110.373 105.713,109.494 108.941,109.375 C110.523,109.371 112.273,109.414 113.566,110.182 C114.902,110.893 115.406,112.211 115.33,112.84 C115.343,114.145 114.012,114.529 113.219,114.346 C112.84,114.258 112.332,113.84 112.66,113.357 C112.978,112.869 113.469,113.008 113.744,113.141 C112.643,112.994 112.662,113.781 113.149,114.012 C113.725,114.297 114.935,114.182 115.01,112.916 C115.132,110.879 111.848,109.182 108.584,109.686 C105.436,109.805 103.02,110.754 103.02,110.738 C103.035,110.682 92.094,114.49 90.057,115.488 C88.208,116.467 87.072,117.027 86.088,118.514" id="Fill-55" fill="#0A0B09" sketch:type="MSShapeGroup"></path>
                <path d="M87.527,121.814 C87.953,120.811 88.641,120.326 89.744,119.684 C91.007,118.998 97.518,116.451 97.546,116.467 C97.545,116.48 99.214,115.873 101.17,115.73 C102.133,115.695 103.198,115.67 103.996,116.105 C104.825,116.504 105.16,117.293 105.129,117.676 C105.172,118.469 104.373,118.734 103.889,118.641 C103.654,118.596 103.336,118.359 103.521,118.057 C103.704,117.752 104.005,117.82 104.175,117.898 C103.502,117.83 103.603,118.268 103.904,118.4 C104.252,118.555 104.795,118.191 104.746,117.564 C104.638,116.33 102.92,115.789 100.936,116.053 C99.043,116.314 97.511,116.82 97.514,116.809 C97.518,116.777 91.074,119.236 89.855,119.887 C88.768,120.525 88.094,120.895 87.527,121.814" id="Fill-56" fill="#0A0B09" sketch:type="MSShapeGroup"></path>
                <path d="M81.689,123.4 C82.349,121.721 83.446,120.887 85.236,119.768 C87.27,118.578 97.873,114.049 97.906,114.08 C97.902,114.094 100.634,113.014 103.84,112.674 C105.428,112.559 107.171,112.479 108.519,113.145 C109.892,113.762 110.49,115.045 110.453,115.672 C110.412,116.854 109.264,117.453 108.465,117.328 C108.076,117.27 107.543,116.893 107.828,116.381 C108.117,115.869 108.615,115.971 108.904,116.09 C107.797,116.018 107.863,116.799 108.373,117.004 C108.963,117.244 110.383,116.561 110.187,115.561 C109.15,110.352 98.037,114.463 98.031,114.445 C98.049,114.395 87.39,118.963 85.439,120.105 C83.66,121.213 82.572,121.854 81.689,123.4" id="Fill-57" fill="#0A0B09" sketch:type="MSShapeGroup"></path>
                <path d="M77.42,125.621 C75.623,125.742 74.5,126.543 72.904,127.922 C71.161,129.514 63.677,138.279 63.697,138.32 C63.711,138.322 61.869,140.604 60.584,143.563 C60.008,145.042 59.407,146.688 59.64,148.175 C59.82,149.679 60.869,150.62 61.484,150.78 C62.691,151.269 63.535,150.173 63.654,149.366 C63.707,148.978 63.51,148.356 62.933,148.478 C62.365,148.604 62.311,149.11 62.34,149.419 C62.604,148.337 63.325,148.638 63.371,149.181 C63.418,149.819 62.87,150.901 61.667,150.513 C59.728,149.88 59.342,146.206 61.009,143.353 C62.256,140.462 64.027,138.559 64.014,138.549 C63.955,138.549 71.491,129.746 73.165,128.209 C74.751,126.85 75.684,125.996 77.42,125.621" id="Fill-58" fill="#0A0B09" sketch:type="MSShapeGroup"></path>
                <path d="M79.977,128.166 C78.884,128.197 78.178,128.66 77.18,129.455 C76.086,130.375 71.336,135.518 71.346,135.543 C71.355,135.547 70.184,136.885 69.333,138.648 C68.952,139.535 68.541,140.515 68.656,141.421 C68.721,142.333 69.334,142.937 69.703,143.044 C70.429,143.376 70.965,142.722 71.057,142.241 C71.098,142.003 70.995,141.624 70.643,141.685 C70.287,141.747 70.248,142.052 70.256,142.241 C70.439,141.591 70.807,141.837 70.822,142.171 C70.838,142.554 70.302,142.921 69.745,142.649 C68.635,142.103 68.753,140.302 69.729,138.551 C70.658,136.877 71.682,135.643 71.672,135.637 C71.64,135.631 76.277,130.523 77.328,129.639 C78.323,128.846 78.908,128.354 79.977,128.166" id="Fill-59" fill="#0A0B09" sketch:type="MSShapeGroup"></path>
                <path d="M83.581,123.307 C81.772,123.305 80.596,124.025 78.906,125.287 C77.057,126.748 68.967,134.965 68.989,135.01 C69.002,135.014 67.006,137.162 65.515,140.025 C64.833,141.452 64.114,143.05 64.25,144.548 C64.326,146.056 65.295,147.075 65.897,147.28 C67.014,147.663 67.989,146.813 68.164,146.024 C68.246,145.636 68.091,145.009 67.514,145.089 C66.931,145.171 66.843,145.675 66.848,145.983 C67.183,144.919 67.892,145.276 67.894,145.813 C67.903,146.452 66.746,147.536 65.893,146.979 C61.418,144.116 69.301,135.273 69.283,135.262 C69.226,135.252 77.371,127.002 79.143,125.592 C80.816,124.348 81.814,123.559 83.581,123.307" id="Fill-60" fill="#0A0B09" sketch:type="MSShapeGroup"></path>
                <path d="M93.927,113.168 C96.566,118.109 92.932,125.209 85.781,129.039 C78.644,132.873 70.712,131.979 68.068,127.043 C65.423,122.113 69.068,115.002 76.213,111.166 C83.352,107.348 91.279,108.244 93.927,113.168" id="Fill-61" fill="#0A0B09" sketch:type="MSShapeGroup"></path>
                <path d="M80.227,111.846 L86.58,96.769 L91.663,113.061 L80.227,111.846" id="Fill-62" fill="#0A0B09" sketch:type="MSShapeGroup"></path>
                <path d="M75.67,114.295 L59.6,111.24 L70.346,124.482 L75.67,114.295" id="Fill-63" fill="#0A0B09" sketch:type="MSShapeGroup"></path>
                <path d="M83.624,125.204 C83.624,125.204 82.395,124.57 82.248,124.326 C82.116,124.069 84.01,123.385 84.01,123.385 L83.624,125.204" id="Fill-64" fill="#FFFFFF" sketch:type="MSShapeGroup"></path>
                <path d="M80.391,121.581 C80.391,121.581 76.684,119.386 73.547,120.77 C70.406,122.156 70.253,123.24 70.253,123.24 C70.253,123.24 71.74,124.854 75.846,123.595 C79.936,122.326 80.391,121.581 80.391,121.581" id="Fill-65" fill="#FFFFFF" sketch:type="MSShapeGroup"></path>
                <g id="Group-69" transform="translate(70.000000, 120.000000)">
                    <mask id="mask-2" sketch:name="Clip 67" fill="white">
                        <use xlink:href="#path-1"></use>
                    </mask>
                    <g id="Clip-67"></g>
                    <path d="M6.41,3.563 C6.41,3.563 7.038,0.283 5.189,-1.641 C3.357,-3.565 2.527,-3.381 2.527,-3.381 C2.527,-3.381 1.105,-1.666 3.088,0.979 C5.084,3.626 6.41,3.563 6.41,3.563" id="Fill-66" fill="#0A0B09" sketch:type="MSShapeGroup" mask="url(#mask-2)"></path>
                    <path d="M3.676,1.213 C3.676,1.213 3.919,1.738 4.495,2.197 C5.053,2.646 5.188,2.668 5.188,2.668 C5.188,2.668 5.162,2.455 4.493,1.865 C3.81,1.277 3.676,1.213 3.676,1.213" id="Fill-68" fill="#FFFFFF" sketch:type="MSShapeGroup" mask="url(#mask-2)"></path>
                </g>
                <path d="M82.335,120.551 C82.335,120.551 82.576,116.248 85.477,114.412 C88.388,112.586 89.37,113.067 89.37,113.067 C89.37,113.067 89.864,115.212 86.541,117.891 C83.213,120.59 82.335,120.551 82.335,120.551" id="Fill-70" fill="#FFFFFF" sketch:type="MSShapeGroup"></path>
                <g id="Group-74" transform="translate(82.000000, 113.000000)">
                    <mask id="mask-4" sketch:name="Clip 72" fill="white">
                        <use xlink:href="#path-3"></use>
                    </mask>
                    <g id="Clip-72"></g>
                    <path d="M4.205,5.344 C4.205,5.344 1.136,4.037 0.564,1.438 C-0.006,-1.15 0.604,-1.742 0.604,-1.742 C0.604,-1.742 2.826,-1.978 3.905,1.157 C4.998,4.291 4.205,5.344 4.205,5.344" id="Fill-71" fill="#0A0B09" sketch:type="MSShapeGroup" mask="url(#mask-4)"></path>
                    <path d="M3.778,1.771 C3.778,1.771 4.08,2.271 4.134,2.987 C4.2,3.714 4.138,3.841 4.138,3.841 C4.138,3.841 3.974,3.696 3.861,2.811 C3.746,1.922 3.778,1.771 3.778,1.771" id="Fill-73" fill="#FFFFFF" sketch:type="MSShapeGroup" mask="url(#mask-4)"></path>
                </g>
            </g>
        </g>
    </g>
</svg>