<?xml version="1.0" encoding="UTF-8" standalone="no"?>
<svg width="108px" height="139px" viewBox="0 0 108 139" version="1.1" xmlns="http://www.w3.org/2000/svg" xmlns:xlink="http://www.w3.org/1999/xlink" xmlns:sketch="http://www.bohemiancoding.com/sketch/ns">
    <!-- Generator: Sketch 3.3.3 (12072) - http://www.bohemiancoding.com/sketch -->
    <title>cat_standing</title>
    <desc>Created with Sketch.</desc>
    <defs>
        <path id="path-1" d="M0.104,4.846 C0.104,4.846 2.349,1.155 5.779,0.903 C9.216,0.651 9.854,1.539 9.854,1.539 C9.854,1.539 9.291,3.669 5.073,4.48 C0.854,5.293 0.104,4.846 0.104,4.846"></path>
        <path id="path-3" d="M9.897,4.846 C9.897,4.846 7.654,1.155 4.218,0.903 C0.785,0.651 0.144,1.539 0.144,1.539 C0.144,1.539 0.71,3.669 4.926,4.48 C9.146,5.293 9.897,4.846 9.897,4.846"></path>
    </defs>
    <g id="Page-1" stroke="none" stroke-width="1" fill="none" fill-rule="evenodd" sketch:type="MSPage">
        <g id="cats2" sketch:type="MSLayerGroup" transform="translate(-225.000000, -21.000000)">
            <g id="cat_standing" transform="translate(225.000000, 21.000000)">
                <path d="M73.4391252,119.407 L73.402,119.407 C73.182,118.97 73.049,118.472 73.049,117.936 C73.049,116.171 74.437,114.726 76.137,114.726 C76.6113322,114.726 77.0602369,114.838363 77.4610111,115.038696 C73.8047785,100.529209 70.2051992,88.1355965 67.531,78.001 L71.953,78.001 C72.9294144,87.5111254 75.6143596,102.666714 78.3506694,115.709905 L78.3506694,115.709905 C78.8842261,116.288213 79.212,117.073938 79.212,117.936 C79.212,118.472 79.084,118.97 78.872,119.407 L78.7794344,119.407 L78.35,121.302 L77.9930451,119.407 L77.9930451,119.407 L76.5049843,119.407 L76.5049843,119.407 L76.08,121.302 L75.7230451,119.407 L74.2210176,119.407 L73.799,121.302 L73.4391252,119.407 Z M79.8954567,119.407 L79.844,119.407 C79.631,118.97 79.497,118.472 79.497,117.936 C79.497,117.229599 79.7177308,116.574455 80.0918137,116.042693 C81.9570535,102.489312 84.1261672,86.4103681 85.079,76.532 C86.607,77.038 88.205,77.581 89.707,78.217 C86.9909841,88.2441353 83.6155728,100.480777 80.9457979,115.214783 L80.9457979,115.214783 C81.4193211,114.905321 81.9793706,114.726 82.58,114.726 C84.278,114.726 85.662,116.171 85.662,117.936 C85.662,118.472 85.535,118.97 85.309,119.407 L85.2216154,119.407 L84.741,121.574 L84.3296288,119.407 L84.3296288,119.407 L82.9516154,119.407 L82.9516154,119.407 L82.46,121.574 L82.0519665,119.407 L80.7882308,119.407 L80.311,121.574 L79.8954567,119.407 L79.8954567,119.407 Z M61.5614836,9.06109217 C62.960939,8.75381135 64.4518035,8.588 65.999,8.588 C67.9104105,8.588 69.7363972,8.84125237 71.4104974,9.30180953 L71.4104974,9.30180953 L81.908,0.811 L79.2900346,14.4567468 C80.1558103,15.7477827 80.639,17.1860504 80.639,18.702 C80.639,24.1129688 74.4896153,28.5259289 66.7584068,28.7986381 L66.7584068,28.7986381 C66.623006,32.0818593 66.9525923,37.2029066 70.268,37.598 C70.391,38.283 70.53,38.951 70.706,39.581 C71.987,44.245 73.898,48.743 75.159,53.353 C73.577,55.455 72.518,58.383 71.943,61.918 C69.389,61.049 66.834,60.179 64.276,59.311 C64.118,56.37 64.22,53.72 64.554,51.347 L64.554,28.7634238 C57.1461475,28.2626777 51.364,23.9521162 51.364,18.702 C51.364,16.6644573 52.2358289,14.7672488 53.7361348,13.1792486 L51.364,0.811 L61.5614836,9.06109217 L61.5614836,9.06109217 Z M89.8482659,60.4197344 C88.385791,60.861639 86.9282349,61.3091834 85.499,61.801 C85.193,58.86 84.565,56.058 83.465,53.969 C84.15,53.054 84.849,52.124 85.499,51.215 C87.013,49.101 88.524,46.093 90.31,43.487 C92.445,47.652 93.443,53.202 93.149,59.415 C92.1776459,59.7186195 91.2006461,60.0118161 90.2249405,60.3060462 C90.2249405,60.3060462 90.2249405,60.3060462 90.2249405,60.3060462 C91.2006461,60.0118161 92.1776459,59.7186195 93.149,59.415 C93.072,61.109 92.896,62.853 92.617,64.632 C92.2485607,66.9932356 91.8379123,69.1913621 91.3935536,71.2762965 C91.9880037,75.8837632 92.9878924,80.6741239 95.451,86.487 C96.655,89.789 99.663,96.157 103.381,104.007 C105.114,107.976 106.972,112.505 107.188,117.577 C107.579,122.674 105.067,127.925 101.099,131.112 C92.864,137.407 82.824,137.628 76.082,138.194 C66.828,138.936 45.688,134.145 34.97,129.95 C28.592,127.456 19.027,122.523 7.201,112.138 C3.438,108.836 0.655,103.995 0.37,98.88 C0.003,93.78 2.094,88.885 5.112,85.602 C10.934,78.331 20.212,78.245 23.186,80.835 C29.687,84.678 28.786,92.734 25.094,96.053 C24.503,96.715 21.082,99.24 19.354,99.429 C17.927,99.758 11.413,99.111 10.111,93.635 C9.543,91.241 10.677,88.561 12.312,87.711 C13.763,86.729 14.893,86.603 14.878,86.574 C14.876,86.601 15.919,86.182 17.696,86.371 C19.639,85.943 22.399,89.942 19.195,91.895 C18.981,92.025 18.755,92.114 18.512,92.188 C18.366,92.285 18.204,92.327 18.021,92.285 C17.696,92.323 17.354,92.312 16.983,92.219 C15.935,91.968 15.607,90.667 15.854,89.978 C16.053,88.336 18.089,88.125 19.052,89 C18.88,88.34 18.281,87.792 17.485,87.887 C16.159,87.743 15.238,88.07 15.255,88.052 C15.557,87.956 10.589,88.903 11.619,93.329 C12.432,97.421 18.034,98.235 19.191,97.911 C21.455,97.696 22.59,96.772 24.074,95.506 C24.139,95.438 24.211,95.371 24.27,95.29 C27.341,92.038 27.934,85.414 22.397,82.144 C19.888,79.958 11.832,79.831 6.26,86.621 C0.006,92.598 0.523,104.86 8.229,111 C26.858,125.834 38.929,130.631 53.698,133.654 C59.697,134.881 69.209,136.968 76.021,136.664 C82.618,136.145 92.555,135.779 100.122,129.931 C103.754,126.97 105.998,122.342 105.652,117.628 C105.464,112.937 103.683,108.535 101.977,104.636 C98.301,96.865 95.246,90.394 94.028,87.037 C92.0988617,82.4560373 91.1220958,78.4697414 90.6064282,74.7239638 C90.3165375,75.9156169 90.0161035,77.0762939 89.707,78.217 C88.205,77.581 86.607,77.038 85.079,76.532 C85.303,74.237 85.484,72.064 85.62,70.035 C85.786,67.498 85.786,64.589 85.499,61.801 C86.9282349,61.3091834 88.385791,60.861639 89.8482659,60.4197344 C89.8482659,60.4197344 89.8482659,60.4197344 89.8482659,60.4197344 L89.8482659,60.4197344 Z M71.943,61.918 C69.389,61.049 66.834,60.179 64.276,59.311 C64.361,60.895 64.521,62.566 64.77,64.321 C65.496,69.445 66.436,73.851 67.531,78.001 L71.953,78.001 C71.713,75.685 71.551,73.477 71.468,71.388 C71.334,67.92 71.485,64.728 71.943,61.918 Z M72.589,37.235 C71.685,37.576 70.919,37.678 70.268,37.598 C70.391,38.283 70.53,38.951 70.706,39.581 C71.987,44.245 73.898,48.743 75.159,53.353 C76.153,52.038 77.352,51.047 78.769,50.435 C80.871,50.57 82.392,51.928 83.465,53.969 C84.15,53.054 84.849,52.124 85.499,51.215 C87.013,49.101 88.524,46.093 90.31,43.487 C87.753,38.501 83.565,35.497 78.033,35.707 C76.127,35.783 74.279,36.288 72.589,37.235 Z" id="Fill-134" fill="#6B6B6B" sketch:type="MSShapeGroup"></path>
                <path d="M65.95,24.576 C65.95,24.576 66.747,23.436 66.747,23.146 C66.747,22.864 64.75,23.146 64.75,23.146 L65.95,24.576" id="Fill-144" fill="#000000" sketch:type="MSShapeGroup"></path>
                <path d="M67.104,19.846 C67.104,19.846 69.349,16.155 72.779,15.903 C76.216,15.651 76.854,16.539 76.854,16.539 C76.854,16.539 76.291,18.669 72.073,19.48 C67.854,20.293 67.104,19.846 67.104,19.846" id="Fill-145" fill="#FFFFFF" sketch:type="MSShapeGroup"></path>
                <g id="Group-149" transform="translate(67.000000, 15.000000)">
                    <mask id="mask-2" sketch:name="Clip 147" fill="white">
                        <use xlink:href="#path-1"></use>
                    </mask>
                    <g id="Clip-147"></g>
                    <path d="M4.563,4.716 C4.563,4.716 2.466,2.113 3.187,-0.456 C3.905,-3.018 4.723,-3.252 4.723,-3.252 C4.723,-3.252 6.797,-2.41 6.279,0.876 C5.761,4.161 4.563,4.716 4.563,4.716" id="Fill-146" fill="#5B9000" sketch:type="MSShapeGroup" mask="url(#mask-2)"></path>
                    <path d="M5.878,1.352 C5.878,1.352 5.906,1.944 5.619,2.607 C5.33,3.273 5.219,3.355 5.219,3.355 C5.219,3.355 5.136,3.153 5.459,2.316 C5.783,1.476 5.878,1.352 5.878,1.352" id="Fill-148" fill="#FFFFFF" sketch:type="MSShapeGroup" mask="url(#mask-2)"></path>
                </g>
                <path d="M64.897,19.846 C64.897,19.846 62.654,16.155 59.218,15.903 C55.785,15.651 55.144,16.539 55.144,16.539 C55.144,16.539 55.71,18.669 59.926,19.48 C64.146,20.293 64.897,19.846 64.897,19.846" id="Fill-150" fill="#FFFFFF" sketch:type="MSShapeGroup"></path>
                <g id="Group-154" transform="translate(55.000000, 15.000000)">
                    <mask id="mask-4" sketch:name="Clip 152" fill="white">
                        <use xlink:href="#path-3"></use>
                    </mask>
                    <g id="Clip-152"></g>
                    <path d="M5.435,4.716 C5.435,4.716 7.527,2.113 6.811,-0.456 C6.092,-3.018 5.28,-3.252 5.28,-3.252 C5.28,-3.252 3.202,-2.41 3.722,0.876 C4.24,4.161 5.435,4.716 5.435,4.716" id="Fill-151" fill="#5B9000" sketch:type="MSShapeGroup" mask="url(#mask-4)"></path>
                    <path d="M4.121,1.352 C4.121,1.352 4.09,1.944 4.378,2.607 C4.667,3.273 4.778,3.355 4.778,3.355 C4.778,3.355 4.861,3.153 4.542,2.316 C4.216,1.476 4.121,1.352 4.121,1.352" id="Fill-153" fill="#FFFFFF" sketch:type="MSShapeGroup" mask="url(#mask-4)"></path>
                </g>
            </g>
        </g>
    </g>
</svg>